<svg id="Layer_1" data-name="Layer 1" xmlns="http://www.w3.org/2000/svg" xmlns:xlink="http://www.w3.org/1999/xlink" viewBox="0 0 1401.98 509.82"><defs><style>.cls-1,.cls-4{fill:none;}.cls-2{clip-path:url(#clip-path);}.cls-3{clip-path:url(#clip-path-2);}.cls-4{stroke:#858585;stroke-linecap:round;stroke-linejoin:round;stroke-width:0.5px;}.cls-5{fill:#b6b6b6;}.cls-6{font-size:41.92px;font-family:Helvetica-BoldOblique, Helvetica;font-weight:700;}.cls-7{letter-spacing:-0.02em;}.cls-8{letter-spacing:-0.07em;}</style><clipPath id="clip-path" transform="translate(-86.47 -118.34)"><rect class="cls-1" x="65.92" y="95.54" width="1442.03" height="555.43"/></clipPath><clipPath id="clip-path-2" transform="translate(-86.47 -118.34)"><rect class="cls-1" x="65.92" y="95.54" width="1442.03" height="555.43"/></clipPath></defs><title>loadbalancing</title><g class="cls-2"><g class="cls-3"><line class="cls-4" x1="998.45" y1="223.88" x2="1098.35" y2="380.26"/><line class="cls-4" x1="1025.8" y1="167.96" x2="1284.79" y2="58.91"/><line class="cls-4" x1="928.18" y1="166.34" x2="703.31" y2="60.52"/><line class="cls-4" x1="918.55" y1="178.73" x2="712.95" y2="142.45"/><line class="cls-4" x1="595.96" y1="136.01" x2="413.03" y2="147.44"/><line class="cls-4" x1="304.93" y1="173.06" x2="150.73" y2="242.45"/><line class="cls-4" x1="346.24" y1="188.6" x2="298.05" y2="434.4"/><line class="cls-4" x1="655.41" y1="75.7" x2="655.41" y2="94.57"/><path class="cls-5" d="M1104.79,280.55c23.33,14.73,23.33,38.62,0,53.35s-61.15,14.73-84.48,0-23.33-38.62,0-53.35,61.15-14.73,84.48,0" transform="translate(-86.47 -118.34)"/><path class="cls-4" d="M1104.79,280.55c23.33,14.73,23.33,38.62,0,53.35s-61.15,14.73-84.48,0-23.33-38.62,0-53.35,61.15-14.73,84.48,0" transform="translate(-86.47 -118.34)"/><text class="cls-6" transform="translate(838.3 203.56)">North <tspan class="cls-7" x="123.4" y="0">V</tspan><tspan x="150.65" y="0">irginia</tspan></text><path class="cls-5" d="M784.11,129.64c23.33,14.73,23.33,38.62,0,53.35s-61.15,14.73-84.48,0-23.33-38.62,0-53.35,61.15-14.73,84.48,0" transform="translate(-86.47 -118.34)"/><path class="cls-4" d="M784.11,129.64c23.33,14.73,23.33,38.62,0,53.35s-61.15,14.73-84.48,0-23.33-38.62,0-53.35,61.15-14.73,84.48,0" transform="translate(-86.47 -118.34)"/><text class="cls-6" transform="translate(581.3 52.65)">Oregon</text><path class="cls-5" d="M784.11,224c23.33,14.73,23.33,38.62,0,53.35s-61.15,14.73-84.48,0-23.33-38.62,0-53.35,61.15-14.73,84.48,0" transform="translate(-86.47 -118.34)"/><path class="cls-4" d="M784.11,224c23.33,14.73,23.33,38.62,0,53.35s-61.15,14.73-84.48,0-23.33-38.62,0-53.35,61.15-14.73,84.48,0" transform="translate(-86.47 -118.34)"/><text class="cls-6" transform="translate(497.46 146.96)">North California</text><path class="cls-5" d="M1463.21,129.64c23.33,14.73,23.33,38.62,0,53.35s-61.15,14.73-84.48,0-23.33-38.62,0-53.35,61.15-14.73,84.48,0" transform="translate(-86.47 -118.34)"/><path class="cls-4" d="M1463.21,129.64c23.33,14.73,23.33,38.62,0,53.35s-61.15,14.73-84.48,0-23.33-38.62,0-53.35,61.15-14.73,84.48,0" transform="translate(-86.47 -118.34)"/><text class="cls-6" transform="translate(1270.78 52.65)">Dublin</text><path class="cls-5" d="M230.77,356c23.33,14.73,23.33,38.62,0,53.35s-61.15,14.73-84.48,0S123,370.74,146.3,356s61.15-14.73,84.48,0" transform="translate(-86.47 -118.34)"/><path class="cls-4" d="M230.77,356c23.33,14.73,23.33,38.62,0,53.35s-61.15,14.73-84.48,0S123,370.74,146.3,356s61.15-14.73,84.48,0" transform="translate(-86.47 -118.34)"/><text class="cls-6" transform="translate(0 279.01)">Singapore</text><path class="cls-5" d="M419.41,563.51c23.33,14.73,23.33,38.62,0,53.35s-61.15,14.73-84.48,0-23.33-38.62,0-53.35,61.15-14.73,84.48,0" transform="translate(-86.47 -118.34)"/><path class="cls-4" d="M419.41,563.51c23.33,14.73,23.33,38.62,0,53.35s-61.15,14.73-84.48,0-23.33-38.62,0-53.35,61.15-14.73,84.48,0" transform="translate(-86.47 -118.34)"/><text class="cls-6" transform="translate(216.57 486.51)">Sydney</text><path class="cls-5" d="M482.29,242.82c23.33,14.73,23.33,38.62,0,53.35s-61.15,14.73-84.48,0-23.33-38.62,0-53.35,61.15-14.73,84.48,0" transform="translate(-86.47 -118.34)"/><path class="cls-4" d="M482.29,242.82c23.33,14.73,23.33,38.62,0,53.35s-61.15,14.73-84.48,0-23.33-38.62,0-53.35,61.15-14.73,84.48,0" transform="translate(-86.47 -118.34)"/><text class="cls-6" transform="translate(293.82 165.83)"><tspan class="cls-8">T</tspan><tspan x="22.55" y="0">okyo</tspan></text><path class="cls-5" d="M1249.42,506.92c23.33,14.73,23.33,38.62,0,53.35s-61.15,14.73-84.48,0-23.33-38.62,0-53.35,61.15-14.73,84.48,0" transform="translate(-86.47 -118.34)"/><path class="cls-4" d="M1249.42,506.92c23.33,14.73,23.33,38.62,0,53.35s-61.15,14.73-84.48,0-23.33-38.62,0-53.35,61.15-14.73,84.48,0" transform="translate(-86.47 -118.34)"/><text class="cls-6" transform="translate(1020.85 429.92)">São Paulo</text><line class="cls-4" x1="131.82" y1="297.07" x2="260.96" y2="439.12"/></g></g></svg>